<svg width="126" height="126" viewBox="0 0 126 126" fill="none" xmlns="http://www.w3.org/2000/svg">
<path d="M62.3944 24.6932L79.6369 42.049C82.5047 44.9269 83.0569 50.1071 80.8838 53.804C78.5859 57.7445 74.115 58.5193 71.0334 55.5308L53.3456 38.4406C52.0988 37.2451 50.3175 37.5108 49.3378 39.0604C48.3581 40.6101 48.5897 42.8238 49.8366 44.0414L53.5594 47.6277L21.9956 83.7561H14.55C9.82969 83.7561 6 83.7561 6 83.7561V44.794C6 38.9276 6 33.6146 6 33.6146L28.9247 34.168L29.6194 33.6146L42.5513 23.3206C45.2766 21.1512 48.465 20 51.7069 20C55.59 20 59.3663 21.6603 62.3944 24.6932ZM58.3331 52.2323L67.5422 61.1316C73.1531 66.5774 81.2934 65.1606 85.4972 57.988C89.4516 51.2361 88.4541 41.8055 83.235 36.5589L68.415 21.6603C70.4813 20.5756 72.7078 20.0221 74.97 20.0221C78.3188 20 81.5784 21.2397 84.375 23.542L97.2 34.168H111.45C116.17 34.168 120 34.168 120 34.168V83.7561C120 83.7561 116.17 83.7561 111.45 83.7561H92.1769L75.8963 102.219C72.405 106.181 67.0078 105.872 63.8194 101.533C62.8397 100.182 62.1806 98.6104 61.8422 96.9722L58.8141 100.426C55.3406 104.388 49.9256 104.101 46.7372 99.7837C45.9356 98.699 45.3478 97.4371 44.9737 96.131C41.5181 99.0089 36.8156 98.4112 33.9122 94.4707C30.7238 90.1539 30.9553 83.4241 34.4288 79.4614L58.3331 52.2323Z" fill="#1C7293"/>
</svg>
