<svg width="486" height="226" viewBox="0 0 486 226" fill="none" xmlns="http://www.w3.org/2000/svg">
<path d="M129.472 43H122.272V20.6H112.272V43H105.072V15H129.472V43ZM145.691 27.2C144.277 27.2 142.677 27.4667 140.891 28V37.6H146.891C147.957 37.6 148.491 37.0667 148.491 36V28.6C148.491 28.2 148.357 27.8667 148.091 27.6C147.824 27.3333 147.491 27.2 147.091 27.2H145.691ZM140.891 43V49.8H133.891V21.8H140.091L140.491 23.8C141.744 22.9733 143.024 22.3733 144.331 22C145.664 21.6 146.784 21.4 147.691 21.4H149.491C151.304 21.4 152.757 21.9467 153.851 23.04C154.944 24.1333 155.491 25.5867 155.491 27.4V36.6C155.491 38.6 154.917 40.1733 153.771 41.32C152.651 42.44 151.091 43 149.091 43H140.891ZM180.686 37C180.686 39 180.113 40.5733 178.966 41.72C177.846 42.84 176.286 43.4 174.286 43.4H165.086C163.086 43.4 161.513 42.84 160.366 41.72C159.246 40.5733 158.686 39 158.686 37V27.8C158.686 25.8 159.246 24.24 160.366 23.12C161.513 21.9733 163.086 21.4 165.086 21.4H174.286C176.286 21.4 177.846 21.9733 178.966 23.12C180.113 24.24 180.686 25.8 180.686 27.8V37ZM173.686 28.4C173.686 27.3333 173.153 26.8 172.086 26.8H167.286C166.219 26.8 165.686 27.3333 165.686 28.4V36.4C165.686 37.4667 166.219 38 167.286 38H172.086C173.153 38 173.686 37.4667 173.686 36.4V28.4ZM192.481 26.4C191.415 26.4 190.881 26.9333 190.881 28V30.2H197.681V28C197.681 26.9333 197.148 26.4 196.081 26.4H192.481ZM203.881 42.6C198.735 43.1333 194.068 43.4 189.881 43.4C188.068 43.4 186.615 42.8533 185.521 41.76C184.428 40.6667 183.881 39.2133 183.881 37.4V27.8C183.881 25.8 184.441 24.24 185.561 23.12C186.708 21.9733 188.281 21.4 190.281 21.4H198.281C200.281 21.4 201.841 21.9733 202.961 23.12C204.108 24.24 204.681 25.8 204.681 27.8V35.2H190.881V36.8C190.881 37.2 191.015 37.5333 191.281 37.8C191.548 38.0667 191.881 38.2 192.281 38.2C194.921 38.2 198.788 38 203.881 37.6V42.6ZM218.266 35H215.266V43H208.266V21.8H215.266V29.6H218.466L220.666 25.2C221.466 23.4933 222.719 22.3333 224.426 21.72C225.039 21.5067 225.626 21.4 226.186 21.4C227.092 21.4 227.919 21.4667 228.666 21.6L229.666 21.8V27.2H228.266C227.359 27.2 226.692 27.6 226.266 28.4L224.266 32.4L230.266 43H222.666L218.266 35ZM244.25 27.2V43H237.25V27.2H230.65V21.8H250.85V27.2H244.25ZM267.066 21.8H274.466V43H267.466V31.4L260.666 43H253.266V21.8H260.266V33.4L267.066 21.8ZM290.261 27.2C288.848 27.2 287.248 27.4667 285.461 28V37.6H291.461C292.528 37.6 293.061 37.0667 293.061 36V28.6C293.061 28.2 292.928 27.8667 292.661 27.6C292.394 27.3333 292.061 27.2 291.661 27.2H290.261ZM285.461 43V49.8H278.461V21.8H284.661L285.061 23.8C286.314 22.9733 287.594 22.3733 288.901 22C290.234 21.6 291.354 21.4 292.261 21.4H294.061C295.874 21.4 297.328 21.9467 298.421 23.04C299.514 24.1333 300.061 25.5867 300.061 27.4V36.6C300.061 38.6 299.488 40.1733 298.341 41.32C297.221 42.44 295.661 43 293.661 43H285.461ZM325.256 37C325.256 39 324.683 40.5733 323.536 41.72C322.416 42.84 320.856 43.4 318.856 43.4H309.656C307.656 43.4 306.083 42.84 304.936 41.72C303.816 40.5733 303.256 39 303.256 37V27.8C303.256 25.8 303.816 24.24 304.936 23.12C306.083 21.9733 307.656 21.4 309.656 21.4H318.856C320.856 21.4 322.416 21.9733 323.536 23.12C324.683 24.24 325.256 25.8 325.256 27.8V37ZM318.256 28.4C318.256 27.3333 317.723 26.8 316.656 26.8H311.856C310.79 26.8 310.256 27.3333 310.256 28.4V36.4C310.256 37.4667 310.79 38 311.856 38H316.656C317.723 38 318.256 37.4667 318.256 36.4V28.4ZM344.052 43H328.852V21.8H342.852C344.638 21.8 346.078 22.3333 347.172 23.4C348.292 24.44 348.852 25.6133 348.852 26.92C348.852 28.2267 348.572 29.2933 348.012 30.12C347.452 30.9467 346.665 31.5067 345.652 31.8C346.852 32.0133 347.878 32.6 348.732 33.56C349.612 34.52 350.052 35.8 350.052 37.4C350.052 39 349.492 40.3333 348.372 41.4C347.278 42.4667 345.838 43 344.052 43ZM343.052 36.2C343.052 35.8 342.918 35.4667 342.652 35.2C342.385 34.9333 342.052 34.8 341.652 34.8H335.852V38.2H341.652C342.052 38.2 342.385 38.0667 342.652 37.8C342.918 37.5333 343.052 37.2 343.052 36.8V36.2ZM341.852 28C341.852 27.6 341.718 27.2667 341.452 27C341.185 26.7333 340.852 26.6 340.452 26.6H335.852V30.2H340.452C340.852 30.2 341.185 30.0667 341.452 29.8C341.718 29.5333 341.852 29.2 341.852 28.8V28ZM361.236 37.8C362.649 37.8 364.249 37.5333 366.036 37V34.6H360.236C359.836 34.6 359.503 34.7333 359.236 35C358.969 35.2667 358.836 35.6 358.836 36V36.4C358.836 36.8 358.969 37.1333 359.236 37.4C359.503 37.6667 359.836 37.8 360.236 37.8H361.236ZM353.836 22.2C358.716 21.6667 363.116 21.4 367.036 21.4C368.849 21.4 370.303 21.9467 371.396 23.04C372.489 24.1333 373.036 25.5867 373.036 27.4V43H366.836L366.436 41C365.183 41.8267 363.889 42.44 362.556 42.84C361.249 43.2133 360.143 43.4 359.236 43.4H357.836C356.023 43.4 354.569 42.8533 353.476 41.76C352.383 40.6667 351.836 39.2133 351.836 37.4V35.6C351.836 33.7867 352.383 32.3333 353.476 31.24C354.569 30.1467 356.023 29.6 357.836 29.6H366.036V28C366.036 27.6 365.903 27.2667 365.636 27C365.369 26.7333 365.036 26.6 364.636 26.6C362.903 26.6 360.983 26.68 358.876 26.84C356.796 27 355.116 27.12 353.836 27.2V22.2ZM390.825 29.6V21.8H397.825V43H390.825V35H383.625V43H376.625V21.8H383.625V29.6H390.825ZM415.62 21.8H423.02V43H416.02V31.4L409.22 43H401.82V21.8H408.82V33.4L415.62 21.8ZM435.216 26.4C434.149 26.4 433.616 26.9333 433.616 28V30.2H440.416V28C440.416 26.9333 439.882 26.4 438.816 26.4H435.216ZM446.616 42.6C441.469 43.1333 436.802 43.4 432.616 43.4C430.802 43.4 429.349 42.8533 428.256 41.76C427.162 40.6667 426.616 39.2133 426.616 37.4V27.8C426.616 25.8 427.176 24.24 428.296 23.12C429.442 21.9733 431.016 21.4 433.016 21.4H441.016C443.016 21.4 444.576 21.9733 445.696 23.12C446.842 24.24 447.416 25.8 447.416 27.8V35.2H433.616V36.8C433.616 37.2 433.749 37.5333 434.016 37.8C434.282 38.0667 434.616 38.2 435.016 38.2C437.656 38.2 441.522 38 446.616 37.6V42.6Z" fill="white"/>
<line x1="482.5" y1="-1.5299e-07" x2="482.5" y2="60" stroke="white" stroke-width="7"/>
<path d="M32.4 98H49.2C52 98 54.0267 98.64 55.28 99.92C56.56 101.173 57.2 103.2 57.2 106V110C57.2 112.8 56.56 114.84 55.28 116.12C54.0267 117.373 52 118 49.2 118H39.6V126H32.4V98ZM50 106C50 104.4 49.2 103.6 47.6 103.6H39.6V112.4H47.6C49.2 112.4 50 111.6 50 110V106ZM68.5984 109.4C67.5318 109.4 66.9984 109.933 66.9984 111V113.2H73.7984V111C73.7984 109.933 73.2651 109.4 72.1984 109.4H68.5984ZM79.9984 125.6C74.8518 126.133 70.1851 126.4 65.9984 126.4C64.1851 126.4 62.7318 125.853 61.6384 124.76C60.5451 123.667 59.9984 122.213 59.9984 120.4V110.8C59.9984 108.8 60.5584 107.24 61.6784 106.12C62.8251 104.973 64.3984 104.4 66.3984 104.4H74.3984C76.3984 104.4 77.9584 104.973 79.0784 106.12C80.2251 107.24 80.7984 108.8 80.7984 110.8V118.2H66.9984V119.8C66.9984 120.2 67.1318 120.533 67.3984 120.8C67.6651 121.067 67.9984 121.2 68.3984 121.2C71.0384 121.2 74.9051 121 79.9984 120.6V125.6ZM94.3828 118H91.3828V126H84.3828V104.8H91.3828V112.6H94.5828L96.7828 108.2C97.5828 106.493 98.8361 105.333 100.543 104.72C101.156 104.507 101.743 104.4 102.303 104.4C103.209 104.4 104.036 104.467 104.783 104.6L105.783 104.8V110.2H104.383C103.476 110.2 102.809 110.6 102.383 111.4L100.383 115.4L106.383 126H98.7828L94.3828 118ZM129.967 120C129.967 122 129.394 123.573 128.247 124.72C127.127 125.84 125.567 126.4 123.567 126.4H114.367C112.367 126.4 110.794 125.84 109.647 124.72C108.527 123.573 107.967 122 107.967 120V110.8C107.967 108.8 108.527 107.24 109.647 106.12C110.794 104.973 112.367 104.4 114.367 104.4H123.567C125.567 104.4 127.127 104.973 128.247 106.12C129.394 107.24 129.967 108.8 129.967 110.8V120ZM122.967 111.4C122.967 110.333 122.434 109.8 121.367 109.8H116.567C115.501 109.8 114.967 110.333 114.967 111.4V119.4C114.967 120.467 115.501 121 116.567 121H121.367C122.434 121 122.967 120.467 122.967 119.4V111.4ZM147.763 112.6V104.8H154.763V126H147.763V118H140.563V126H133.563V104.8H140.563V112.6H147.763ZM177.558 125.6C172.571 126.133 168.171 126.4 164.358 126.4C162.544 126.4 161.091 125.853 159.998 124.76C158.904 123.667 158.358 122.213 158.358 120.4V111.2C158.358 109.2 158.918 107.64 160.038 106.52C161.184 105.373 162.758 104.8 164.758 104.8H177.558V110.2H166.958C165.891 110.2 165.358 110.733 165.358 111.8V119.6C165.358 120 165.491 120.333 165.758 120.6C166.024 120.867 166.358 121 166.758 121C169.158 121 172.758 120.8 177.558 120.4V125.6ZM192.75 110.2V126H185.75V110.2H179.15V104.8H199.35V110.2H192.75ZM213.566 110.2C212.152 110.2 210.552 110.467 208.766 111V120.6H214.766C215.832 120.6 216.366 120.067 216.366 119V111.6C216.366 111.2 216.232 110.867 215.966 110.6C215.699 110.333 215.366 110.2 214.966 110.2H213.566ZM208.766 126V132.8H201.766V104.8H207.966L208.366 106.8C209.619 105.973 210.899 105.373 212.206 105C213.539 104.6 214.659 104.4 215.566 104.4H217.366C219.179 104.4 220.632 104.947 221.726 106.04C222.819 107.133 223.366 108.587 223.366 110.4V119.6C223.366 121.6 222.792 123.173 221.646 124.32C220.526 125.44 218.966 126 216.966 126H208.766ZM232.17 133.2C230.757 133.2 229.024 133.067 226.97 132.8V127.6H230.57C231.584 127.6 232.237 127.32 232.53 126.76C232.85 126.2 232.797 125.413 232.37 124.4L224.17 104.8H231.57L236.57 118.4L240.77 104.8H248.17L240.17 126.8C239.397 128.907 238.397 130.493 237.17 131.56C235.944 132.653 234.277 133.2 232.17 133.2ZM259.383 118H256.383V126H249.383V104.8H256.383V112.6H259.583L261.783 108.2C262.583 106.493 263.836 105.333 265.543 104.72C266.156 104.507 266.743 104.4 267.303 104.4C268.209 104.4 269.036 104.467 269.783 104.6L270.783 104.8V110.2H269.383C268.476 110.2 267.809 110.6 267.383 111.4L265.383 115.4L271.383 126H263.783L259.383 118ZM290.567 126H273.367V104.8H280.367V120.6H287.567V104.8H294.567V120.6H297.567V130.8H290.967L290.567 126ZM314.159 104.8H321.559V126H314.559V114.4L307.759 126H300.359V104.8H307.359V116.4L314.159 104.8ZM346.355 104.8V126H339.355V119.4H335.955L332.155 126H324.755L328.755 119C327.635 118.6 326.755 117.92 326.115 116.96C325.475 116 325.155 114.813 325.155 113.4V110.8C325.155 108.987 325.701 107.533 326.795 106.44C327.888 105.347 329.341 104.8 331.155 104.8H346.355ZM333.555 109.8C333.155 109.8 332.821 109.933 332.555 110.2C332.288 110.467 332.155 110.8 332.155 111.2V113C332.155 113.4 332.288 113.733 332.555 114C332.821 114.267 333.155 114.4 333.555 114.4H339.355V109.8H333.555Z" fill="white"/>
<line x1="3.5" y1="83" x2="3.5" y2="143" stroke="white" stroke-width="7"/>
<path d="M133.438 208.6C127.491 209.133 122.558 209.4 118.638 209.4C116.024 209.4 114.104 208.787 112.878 207.56C111.651 206.333 111.038 204.413 111.038 201.8V189C111.038 186.2 111.664 184.173 112.918 182.92C114.198 181.64 116.238 181 119.038 181H133.438V186.6H120.638C119.038 186.6 118.238 187.4 118.238 189V201.8C118.238 202.413 118.411 202.907 118.758 203.28C119.131 203.627 119.598 203.8 120.158 203.8C120.718 203.8 121.331 203.8 121.998 203.8C122.664 203.773 123.358 203.747 124.078 203.72C124.798 203.693 125.518 203.667 126.238 203.64C126.984 203.613 127.931 203.56 129.078 203.48C130.251 203.4 131.704 203.307 133.438 203.2V208.6ZM146.641 193.2V209H139.641V193.2H133.041V187.8H153.241V193.2H146.641ZM167.456 193.2C166.043 193.2 164.443 193.467 162.656 194V203.6H168.656C169.723 203.6 170.256 203.067 170.256 202V194.6C170.256 194.2 170.123 193.867 169.856 193.6C169.59 193.333 169.256 193.2 168.856 193.2H167.456ZM162.656 209V215.8H155.656V187.8H161.856L162.256 189.8C163.51 188.973 164.79 188.373 166.096 188C167.43 187.6 168.55 187.4 169.456 187.4H171.256C173.07 187.4 174.523 187.947 175.616 189.04C176.71 190.133 177.256 191.587 177.256 193.4V202.6C177.256 204.6 176.683 206.173 175.536 207.32C174.416 208.44 172.856 209 170.856 209H162.656ZM202.452 203C202.452 205 201.878 206.573 200.732 207.72C199.612 208.84 198.052 209.4 196.052 209.4H186.852C184.852 209.4 183.278 208.84 182.132 207.72C181.012 206.573 180.452 205 180.452 203V193.8C180.452 191.8 181.012 190.24 182.132 189.12C183.278 187.973 184.852 187.4 186.852 187.4H196.052C198.052 187.4 199.612 187.973 200.732 189.12C201.878 190.24 202.452 191.8 202.452 193.8V203ZM195.452 194.4C195.452 193.333 194.918 192.8 193.852 192.8H189.052C187.985 192.8 187.452 193.333 187.452 194.4V202.4C187.452 203.467 187.985 204 189.052 204H193.852C194.918 204 195.452 203.467 195.452 202.4V194.4ZM219.847 187.8H227.247V209H220.247V197.4L213.447 209H206.047V187.8H213.047V199.4L219.847 187.8ZM243.242 193.2V209H236.242V193.2H229.642V187.8H249.842V193.2H243.242ZM260.458 192.4C259.391 192.4 258.858 192.933 258.858 194V196.2H265.658V194C265.658 192.933 265.124 192.4 264.058 192.4H260.458ZM271.858 208.6C266.711 209.133 262.044 209.4 257.858 209.4C256.044 209.4 254.591 208.853 253.498 207.76C252.404 206.667 251.858 205.213 251.858 203.4V193.8C251.858 191.8 252.418 190.24 253.538 189.12C254.684 187.973 256.258 187.4 258.258 187.4H266.258C268.258 187.4 269.818 187.973 270.938 189.12C272.084 190.24 272.658 191.8 272.658 193.8V201.2H258.858V202.8C258.858 203.2 258.991 203.533 259.258 203.8C259.524 204.067 259.858 204.2 260.258 204.2C262.898 204.2 266.764 204 271.858 203.6V208.6ZM278.642 209.4C277.496 209.4 276.162 209.267 274.642 209V203.8H276.242C277.256 203.8 277.789 203.267 277.842 202.2L278.642 187.8H297.842V209H290.842V193.2H285.242L284.642 203.4C284.536 205.213 283.936 206.667 282.842 207.76C281.749 208.853 280.349 209.4 278.642 209.4ZM301.828 209V187.8H308.828V194.4H317.028C318.841 194.4 320.295 194.947 321.388 196.04C322.481 197.133 323.028 198.587 323.028 200.4V203C323.028 204.813 322.481 206.267 321.388 207.36C320.295 208.453 318.841 209 317.028 209H301.828ZM314.628 204C315.028 204 315.361 203.867 315.628 203.6C315.895 203.333 316.028 203 316.028 202.6V200.8C316.028 200.4 315.895 200.067 315.628 199.8C315.361 199.533 315.028 199.4 314.628 199.4H308.828V204H314.628ZM344.613 208.6C339.626 209.133 335.226 209.4 331.413 209.4C329.599 209.4 328.146 208.853 327.053 207.76C325.959 206.667 325.413 205.213 325.413 203.4V194.2C325.413 192.2 325.973 190.64 327.093 189.52C328.239 188.373 329.813 187.8 331.813 187.8H344.613V193.2H334.013C332.946 193.2 332.413 193.733 332.413 194.8V202.6C332.413 203 332.546 203.333 332.813 203.6C333.079 203.867 333.413 204 333.812 204C336.213 204 339.813 203.8 344.613 203.4V208.6ZM359.805 193.2V209H352.805V193.2H346.205V187.8H366.405V193.2H359.805ZM384.02 209H368.82V187.8H382.82C384.607 187.8 386.047 188.333 387.14 189.4C388.26 190.44 388.82 191.613 388.82 192.92C388.82 194.227 388.54 195.293 387.98 196.12C387.42 196.947 386.634 197.507 385.62 197.8C386.82 198.013 387.847 198.6 388.7 199.56C389.58 200.52 390.02 201.8 390.02 203.4C390.02 205 389.46 206.333 388.34 207.4C387.247 208.467 385.807 209 384.02 209ZM383.02 202.2C383.02 201.8 382.887 201.467 382.62 201.2C382.354 200.933 382.02 200.8 381.62 200.8H375.82V204.2H381.62C382.02 204.2 382.354 204.067 382.62 203.8C382.887 203.533 383.02 203.2 383.02 202.8V202.2ZM381.82 194C381.82 193.6 381.687 193.267 381.42 193C381.154 192.733 380.82 192.6 380.42 192.6H375.82V196.2H380.42C380.82 196.2 381.154 196.067 381.42 195.8C381.687 195.533 381.82 195.2 381.82 194.8V194ZM414.405 203C414.405 205 413.831 206.573 412.685 207.72C411.565 208.84 410.005 209.4 408.005 209.4H398.805C396.805 209.4 395.231 208.84 394.085 207.72C392.965 206.573 392.405 205 392.405 203V193.8C392.405 191.8 392.965 190.24 394.085 189.12C395.231 187.973 396.805 187.4 398.805 187.4H408.005C410.005 187.4 411.565 187.973 412.685 189.12C413.831 190.24 414.405 191.8 414.405 193.8V203ZM407.405 194.4C407.405 193.333 406.871 192.8 405.805 192.8H401.005C399.938 192.8 399.405 193.333 399.405 194.4V202.4C399.405 203.467 399.938 204 401.005 204H405.805C406.871 204 407.405 203.467 407.405 202.4V194.4Z" fill="white"/>
<line x1="449.5" y1="166" x2="449.5" y2="226" stroke="white" stroke-width="7"/>
</svg>
