<svg width="126" height="126" viewBox="0 0 126 126" fill="none" xmlns="http://www.w3.org/2000/svg">
<path d="M99.225 110.25L63 74.025L74.025 63L110.25 99.225L99.225 110.25ZM26.775 110.25L15.75 99.225L51.975 63L43.05 54.075L39.375 57.75L32.6812 51.0563V61.8188L29.0062 65.4938L13.125 49.6125L16.8 45.9375H27.5625L21 39.375L39.6375 20.7375C41.3875 18.9875 43.2687 17.7188 45.2812 16.9313C47.2937 16.1438 49.35 15.75 51.45 15.75C53.55 15.75 55.6062 16.1438 57.6187 16.9313C59.6312 17.7188 61.5125 18.9875 63.2625 20.7375L51.1875 32.8125L57.75 39.375L54.075 43.05L63 51.975L74.8125 40.1625C74.4625 39.2 74.179 38.1938 73.962 37.1438C73.745 36.0938 73.6347 35.0438 73.6312 33.9938C73.6312 28.8313 75.404 24.4773 78.9495 20.9318C82.495 17.3863 86.8472 15.6153 92.0062 15.6188C93.3187 15.6188 94.5665 15.75 95.7495 16.0125C96.9325 16.275 98.1347 16.6688 99.3562 17.1938L86.3625 30.1875L95.8125 39.6375L108.806 26.6438C109.419 27.8688 109.835 29.071 110.056 30.2505C110.276 31.43 110.385 32.6778 110.381 33.9938C110.381 39.1563 108.61 43.5103 105.068 47.0558C101.526 50.6013 97.1722 52.3723 92.0062 52.3688C90.9562 52.3688 89.9062 52.2813 88.8562 52.1063C87.8062 51.9313 86.8 51.625 85.8375 51.1875L26.775 110.25Z" fill="#1C7293"/>
</svg>
